<svg width="185" height="42" viewBox="0 0 185 42" fill="none" xmlns="http://www.w3.org/2000/svg">
    <path fill-rule="evenodd" clip-rule="evenodd"
          d="M53.0164 16.8459C51.7688 16.8459 50.7502 16.9223 49.7572 17.0492V24.1973C51.412 24.4771 52.2782 24.4521 53.2461 24.4521C55.283 24.4521 56.6074 22.849 56.6074 20.7893C56.6074 18.5253 55.6141 16.8459 53.0164 16.8459ZM53.6532 26.9193C52.38 26.9193 51.3867 26.9193 49.7572 26.716V33.5709L46.8289 32.0055V14.9633C48.3311 14.7089 50.8773 14.3786 53.4244 14.3786C57.2945 14.3786 59.4083 16.8973 59.4842 20.7129C59.4842 24.3504 57.1421 26.9193 53.6532 26.9193Z"
          fill="#333333"/>
    <path fill-rule="evenodd" clip-rule="evenodd"
          d="M69.6928 17.2534C68.1395 17.2534 66.6883 17.3039 65.2115 17.4314V26.7924H62.2835V15.1161C64.3715 14.7347 67.4013 14.3786 69.6928 14.3786V17.2534Z"
          fill="#333333"/>
    <path fill-rule="evenodd" clip-rule="evenodd"
          d="M81.2269 20.6876C81.2269 18.3976 79.7248 16.8973 77.4839 16.8973C75.2174 16.8973 73.6894 18.3976 73.6894 20.6876C73.6894 23.0273 75.2174 24.5796 77.4839 24.5796C79.7248 24.5796 81.2269 23.0273 81.2269 20.6876ZM84.2061 20.6876C84.2061 24.6301 81.4816 27.2502 77.4839 27.2502C73.46 27.2502 70.7355 24.6301 70.7355 20.6876C70.7355 16.8206 73.46 14.2258 77.4839 14.2258C81.4816 14.2258 84.2061 16.8206 84.2061 20.6876Z"
          fill="#333333"/>
    <path fill-rule="evenodd" clip-rule="evenodd"
          d="M106.715 19.0595V26.7924H103.787V19.8987C103.787 17.9909 102.87 17.0492 100.986 17.0492C100.018 17.0492 99.0247 17.1509 98.0568 17.4314C98.1847 17.8892 98.2612 18.4228 98.2612 19.0334V26.7924H95.307V19.8476C95.307 17.8892 94.3905 17.0492 92.5061 17.0492C91.6146 17.0492 90.7231 17.1003 89.7813 17.2273V26.7924H86.8533V15.0145C87.7951 14.7853 90.7996 14.3786 93.1425 14.3786C94.4923 14.3786 95.6385 14.6072 96.5038 15.1667C97.7517 14.7089 99.8648 14.3786 101.622 14.3786C104.678 14.3786 106.715 15.7009 106.715 19.0595Z"
          fill="#333333"/>
    <path fill-rule="evenodd" clip-rule="evenodd"
          d="M110.074 14.76H113.002V26.7924H110.074V14.76ZM109.564 10.7916C109.564 9.64663 110.43 8.83273 111.525 8.83273C112.595 8.83273 113.485 9.64663 113.485 10.7916C113.485 11.8853 112.595 12.6994 111.525 12.6994C110.43 12.6994 109.564 11.8853 109.564 10.7916Z"
          fill="#333333"/>
    <path fill-rule="evenodd" clip-rule="evenodd"
          d="M128.508 19.0595V26.7924H125.579V19.8987C125.579 18.1689 124.484 17.0492 122.83 17.0492C121.76 17.0492 120.64 17.1256 119.468 17.2534V26.7924H116.54V14.9633C117.839 14.7089 121.123 14.3786 123.466 14.3786C126.522 14.3786 128.508 16.21 128.508 19.0595Z"
          fill="#333333"/>
    <path fill-rule="evenodd" clip-rule="evenodd"
          d="M133.879 20.7893C133.879 23.1037 135.178 24.7065 137.24 24.7065C138.386 24.7065 139.506 24.3504 140.729 23.4093V17.0492C139.736 16.9223 138.718 16.8459 137.47 16.8459C134.872 16.8459 133.879 18.5253 133.879 20.7893ZM143.657 14.9633V26.7924H140.729V25.8765C139.583 26.6907 138.361 27.1738 136.833 27.1738C133.344 27.1738 131.001 24.6049 131.001 20.7129C131.027 16.8973 133.192 14.3786 137.037 14.3786C139.608 14.3786 141.06 14.582 143.657 14.9633Z"
          fill="#333333"/>
    <path fill-rule="evenodd" clip-rule="evenodd"
          d="M149.079 20.6615C149.079 23.1037 150.251 24.7065 152.695 24.7065C153.281 24.7065 154.274 24.6551 155.929 24.4521V17.177C154.91 16.9475 153.714 16.8459 152.874 16.8459C150.073 16.8459 149.079 18.474 149.079 20.6615ZM158.858 26.6143C155.267 27.0974 153.841 27.0974 152.034 27.0974C148.672 27.0974 146.227 24.7829 146.227 20.6615C146.227 16.8973 148.29 14.3786 152.492 14.3786C153.561 14.3786 154.962 14.5056 155.929 14.7089V9.51379L158.858 11.0792V26.6143Z"
          fill="#333333"/>
    <path fill-rule="evenodd" clip-rule="evenodd"
          d="M172.021 20.6876C172.021 18.3976 170.519 16.8973 168.278 16.8973C166.011 16.8973 164.483 18.3976 164.483 20.6876C164.483 23.0273 166.011 24.5796 168.278 24.5796C170.519 24.5796 172.021 23.0273 172.021 20.6876ZM175 20.6876C175 24.6301 172.275 27.2502 168.278 27.2502C164.254 27.2502 161.529 24.6301 161.529 20.6876C161.529 16.8206 164.254 14.2258 168.278 14.2258C172.275 14.2258 175 16.8206 175 20.6876Z"
          fill="#333333"/>
    <path fill-rule="evenodd" clip-rule="evenodd" d="M16.8358 26.9783L13.9075 28.6673V32.0448L16.8358 30.3561V26.9783Z"
          fill="#FA8305"/>
    <path fill-rule="evenodd" clip-rule="evenodd"
          d="M21.7228 24.1597L18.7947 25.8485V29.2262L21.7228 27.5375V36.5524L24.6508 34.8634V22.471L21.7228 24.1597Z"
          fill="#FFC005"/>
    <path fill-rule="evenodd" clip-rule="evenodd" d="M34.425 14.5741L37.353 12.8851V9.50761L34.425 11.1963V14.5741Z"
          fill="#144FCB"/>
    <path fill-rule="evenodd" clip-rule="evenodd"
          d="M29.538 17.3927L32.466 15.7039V12.3262L29.538 14.0149V5L26.6097 6.68874V19.0814L29.538 17.3927Z"
          fill="#2295F0"/>
    <path fill-rule="evenodd" clip-rule="evenodd" d="M26.6097 31.4859V34.8637L29.538 36.5524V33.1746L26.6097 31.4859Z"
          fill="#52A121"/>
    <path fill-rule="evenodd" clip-rule="evenodd"
          d="M26.6097 25.8485V29.2262L29.538 30.9149V27.5375L37.353 32.0448V28.6673L26.6097 22.471V25.8485Z"
          fill="#8AC349"/>
    <path fill-rule="evenodd" clip-rule="evenodd" d="M24.6508 10.0665V6.68874L21.7228 5V8.37776L24.6508 10.0665Z"
          fill="#4D1398"/>
    <path fill-rule="evenodd" clip-rule="evenodd"
          d="M24.6508 15.7037V12.3262L21.7228 10.6375V14.0149L13.9075 9.50732V12.8851L24.6508 19.0814V15.7037Z"
          fill="#8A4EB7"/>
    <path fill-rule="evenodd" clip-rule="evenodd"
          d="M35.4045 25.2837L38.3325 26.9724L41.2608 25.2837L38.3325 23.5949L35.4045 25.2837Z" fill="#008FA0"/>
    <path fill-rule="evenodd" clip-rule="evenodd"
          d="M30.5172 22.4651H30.5175L33.4455 24.1538L36.3735 22.4651L33.4455 20.7761L41.2608 16.2687L38.3325 14.58L30.5172 19.0873L27.5892 20.7761L30.5172 22.4651Z"
          fill="#00BBD4"/>
    <path fill-rule="evenodd" clip-rule="evenodd"
          d="M15.8563 16.2687L12.928 14.58L10 16.2687L12.928 17.9575L15.8563 16.2687Z" fill="#C21624"/>
    <path fill-rule="evenodd" clip-rule="evenodd"
          d="M20.7433 19.0873L17.8153 17.3986L14.887 19.0873L17.815 20.7761L10 25.2837L12.928 26.9724L23.6716 20.7761L20.7433 19.0873Z"
          fill="#F64237"/>
</svg>
